# AST/ASF file generated using VICON BodyLanguage
# -----------------------------------------------
:version 1.10
:name VICON
:units
  mass 1.0
  length 0.45
  angle deg
:documentation
   .ast/.asf automatically generated from VICON data using
   VICON BodyBuilder and BodyLanguage model FoxedUp or BRILLIANT.MOD
:root
   order TX TY TZ RX RY RZ
   axis XYZ
   position 0 0 0  
   orientation 0 0 0 
:bonedata
  begin
     id 1 
     name lhipjoint
     direction 0.577973 -0.728611 0.367523 
     length 2.48544 
     axis 0 0 0  XYZ
  end
  begin
     id 2 
     name lfemur
     direction 0.34202 -0.939693 0  
     length 7.1921  
     axis 0 0 20  XYZ
    dof rx ry rz
    limits (-160.0 20.0)
           (-70.0 70.0)
           (-60.0 70.0)
  end
  begin
     id 3 
     name ltibia
     direction 0.34202 -0.939693 0   
     length 7.71059   
     axis 0 0 20   XYZ
    dof rx
    limits (-10.0 170.0)
  end
  begin
     id 4 
     name lfoot
     direction 0.089538 -0.246004 0.965124   
     length 2.19909   
     axis -90 7.62852e-016 20   XYZ
    dof rx rz
    limits (-45.0 90.0)
           (-70.0 20.0)
  end
  begin
     id 5 
     name ltoes
     direction 1.53544e-011 -4.21829e-011 1   
     length 1.10116   
     axis -90 7.62852e-016 20   XYZ
    dof rx
    limits (-90.0 20.0)
  end
  begin
     id 6 
     name rhipjoint
     direction -0.554414 -0.743062 0.374812   
     length 2.4371  
     axis 0 0 0  XYZ 
  end
  begin
     id 7 
     name rfemur
     direction -0.34202 -0.939693 0   
     length 7.47254   
     axis 0 0 -20   XYZ
    dof rx ry rz
    limits (-160.0 20.0)
           (-70.0 70.0)
           (-70.0 60.0)
  end
  begin
     id 8 
     name rtibia
     direction -0.34202 -0.939693 0   
     length 7.65855   
     axis 0 0 -20   XYZ
    dof rx
    limits (-10.0 170.0)
 end
 begin
     id 9 
     name rfoot
     direction -0.133779 -0.367555 0.92033   
     length 2.43006  
     axis -90 -7.62852e-016 -20   XYZ
    dof rx rz
    limits (-45.0 90.0)
           (-20.0 70.0)
  end
  begin
     id 10 
     name rtoes
     direction -1.53563e-011 -4.21889e-011 1   
     length 1.19625   
     axis -90 -7.62852e-016 -20   XYZ
    dof rx
    limits (-90.0 20.0)
  end
  begin
     id 11 
     name lowerback
     direction 0.0249066 0.998043 -0.0573585   
     length 2.08485   
     axis 0 0 0   XYZ
    dof rx ry rz
    limits (-20.0 45.0)
           (-30.0 30.0)
           (-30.0 30.0)
  end
  begin
     id 12 
     name upperback
     direction 0.0237884 0.999673 0.00943178   
     length 2.08515   
     axis 0 0 0   XYZ
    dof rx ry rz
    limits (-20.0 45.0)
           (-30.0 30.0)
           (-30.0 30.0)
  end
  begin
     id 13 
     name thorax
     direction 0.0106671 0.999301 0.0358174   
     length 2.09037   
     axis 0 0 0   XYZ
    dof rx ry rz
    limits (-20.0 45.0)
           (-30.0 30.0)
           (-30.0 30.0)
  end
  begin
     id 14 
     name lowerneck
     direction -0.0580016 0.987052 0.149546   
     length 1.84454   
     axis 0 0 0   XYZ
    dof rx ry rz
    limits (-20.0 45.0)
           (-30.0 30.0)
           (-30.0 30.0)
  end
  begin
     id 15 
     name upperneck
     direction 0.079456 0.981963 -0.171567   
     length 1.88141   
     axis 0 0 0   XYZ
    dof rx ry rz
    limits (-20.0 45.0)
           (-30.0 30.0)
           (-30.0 30.0)
  end
  begin
     id 16
     name head
     direction 0.0262167 0.9967 -0.0768276  
     length 1.89541  
     axis 0 0 0   XYZ
    dof rx ry rz
    limits (-20.0 45.0)
           (-30.0 30.0)
           (-30.0 30.0)
  end
  begin
     id 17 
     name lclavicle
     direction 0.946135 0.322134 -0.0325326  
     length 3.949  
     axis 0 0 0   XYZ
    dof ry rz
    limits (-20.0 10.0)
           (0.0 20.0)
  end
  begin
     id 18 
     name lhumerus
     direction 1 -4.48964e-011 1.94005e-028   
     length 5.10995   
     axis 180 -30 -90   XYZ
    dof rx ry rz
    limits (-60.0 90.0)
           (-90.0 90.0)
           (-90.0 90.0)
  end
  begin
     id 19
     name lradius
     direction 1 -4.48976e-011 2.87852e-027   
     length 3.21207   
     axis 180 -30 -90   XYZ
    dof rx
    limits (-10.0 170.0)
  end
  begin
     id 20
     name lwrist
     direction 1 -4.48963e-011 1.9975e-027   
     length 1.60604   
     axis 2.96054e-016 90 90   XYZ
    dof ry
    limits (-180.0 0.0)
 end
  begin
     id 21 
     name lhand
     direction 1 -4.48919e-011 4.00227e-027   
     length 0.63349   
     axis -2.5488e-015 90 90   XYZ
    dof rx rz
    limits (-90.0 90.0)
           (-45.0 45.0)
  end
  begin
     id 22 
     name lfingers
     direction 1 -4.49037e-011 7.9652e-027   
     length 0.510736   
     axis -5.0975e-015 90 90   XYZ
    dof rx
    limits (0.0 90.0)
  end
  begin
     id 23
     name lthumb
     direction 0.707107 -6.34922e-011 0.707107   
     length 0.733318   
     axis -90 45 -4.48553e-014   XYZ
    dof rx rz
    limits (-45.0 45.0)
           (-45.0 45.0)
  end
  begin
     id 24 
     name rclavicle
     direction -0.940085 0.328911 -0.0897654   
     length 3.93848  
     axis 0 0 0   XYZ 
    dof ry rz
    limits (-10.0 20.0)
           (-20.0 0.0)
  end
  begin
     id 25 
     name rhumerus
     direction -1 -4.48958e-011 3.02044e-027  
     length 5.25109   
     axis 180 30 90   XYZ
    dof rx ry rz
    limits (-90.0 60.0)
           (-90.0 90.0)
           (-90.0 90.0)
  end
  begin
     id 26 
     name rradius
     direction -1 -4.4897e-011 9.78352e-028   
     length 3.28364   
     axis 180 30 90   XYZ
    dof rx
    limits (-10.0 170.0)
  end
  begin
     id 27 
     name rwrist
     direction -1 -4.48943e-011 1.99918e-027   
     length 1.64182   
     axis 2.96054e-016 -90 -90   XYZ
    dof ry
    limits (-180.0 0.0)
  end
  begin
     id 28
     name rhand
     direction -1 -4.49024e-011 3.98478e-027   
     length 0.599745   
     axis -2.5488e-015 -90 -90   XYZ
    dof rx rz
    limits (-90.0 90.0)
           (-45.0 45.0)
  end
  begin
     id 29
     name rfingers
     direction -1 -4.48914e-011 8.00621e-027   
     length 0.48353   
     axis -5.0975e-015 -90 -90   XYZ
    dof rx
    limits (0.0 90.0)
  end
  begin
     id 30
     name rthumb
     direction -0.707107 -6.34992e-011 0.707107   
     length 0.694255   
     axis -90 -45 4.48553e-014   XYZ
    dof rx rz
    limits (-45.0 45.0)
           (-45.0 45.0)
  end
:hierarchy
  begin
    root lhipjoint rhipjoint lowerback
    lhipjoint lfemur
    lfemur ltibia
    ltibia lfoot
    lfoot ltoes
    rhipjoint rfemur
    rfemur rtibia
    rtibia rfoot
    rfoot rtoes
    lowerback upperback
    upperback thorax
    thorax lowerneck lclavicle rclavicle
    lowerneck upperneck
    upperneck head
    lclavicle lhumerus
    lhumerus lradius
    lradius lwrist
    lwrist lhand lthumb
    lhand lfingers
    rclavicle rhumerus
    rhumerus rradius
    rradius rwrist
    rwrist rhand rthumb
    rhand rfingers
  end

#!OML:ASF E:\CV Data\Top Level 1\Subject 1\Session 1\player.ASF
:FULLY-SPECIFIED
:DEGREES
893
root 11.1277 16.7488 -10.6305 6.23638 -69.8576 3.30945
lowerback 7.91713 0.766592 -6.64678
upperback -0.422672 0.286801 -1.54511
thorax -4.92269 0.28021 2.08813
lowerneck -16.5998 9.50112 -4.46041
upperneck 13.9935 13.1222 4.80029
head 6.32233 6.52088 3.50353
rclavicle 1.09332e-014 -1.43125e-014
rhumerus 139.317 134.171 69.039
rradius 89.6579
rwrist 8.76708
rhand -32.286 28.0542
rfingers 7.12502
rthumb -5.52483 -1.85378
lclavicle 1.09332e-014 -1.43125e-014
lhumerus -44.7525 -32.6879 111.541
lradius 95.7187
lwrist 30.9157
lhand -36.1476 10.6774
lfingers 7.12502
lthumb -9.25221 40.4544
rfemur -47.8667 -3.06257 21.0207
rtibia 44.3557
rfoot -5.45398 -8.99747
rtoes 18.9644
lfemur 0.543463 8.91134 -23.7798
ltibia 23.1592
lfoot -22.7736 10.8534
ltoes -15.6845
894
root 11.0759 16.7322 -10.6247 5.80246 -70.4385 3.4635
lowerback 7.73781 0.7344 -6.83994
upperback -0.495584 0.227439 -1.69944
thorax -4.89412 0.253387 2.04256
lowerneck -16.5535 9.62192 -4.45419
upperneck 14.2331 13.2336 5.09445
head 6.36385 6.59678 3.61002
rclavicle -2.14687e-014 7.95139e-015
rhumerus 139.562 133.94 69.1135
rradius 89.8127
rwrist 8.45307
rhand -33.078 28.484
rfingers 7.12502
rthumb -6.28948 -1.40267
lclavicle -2.14687e-014 7.95139e-015
lhumerus -44.5078 -32.8819 111.415
lradius 95.9729
lwrist 30.6026
lhand -36.4063 10.5338
lfingers 7.12502
lthumb -9.50181 40.2996
rfemur -47.7351 -2.87601 21.1465
rtibia 44.914
rfoot -5.86303 -8.64267
rtoes 18.9823
lfemur 1.04813 9.07754 -23.8103
ltibia 23.2461
lfoot -22.6998 11.1336
ltoes -16.2977
895
root 11.0199 16.7146 -10.6183 5.3409 -71.0448 3.62852
lowerback 7.54095 0.69193 -7.04136
upperback -0.573632 0.155936 -1.84612
thorax -4.86001 0.220771 2.01081
lowerneck -16.4967 9.7576 -4.46025
upperneck 14.479 13.3645 5.40289
head 6.40225 6.68285 3.72387
rclavicle 5.96354e-015 -1.51076e-014
rhumerus 139.806 133.707 69.1996
rradius 89.9954
rwrist 8.23557
rhand -33.7066 28.8967
rfingers 7.12502
rthumb -6.8963 -0.970953
lclavicle 5.96354e-015 -1.51076e-014
lhumerus -44.2704 -33.01 111.312
lradius 96.2788
lwrist 30.2523
lhand -36.6911 10.3633
lfingers 7.12502
lthumb -9.77666 40.1164
rfemur -47.577 -2.67685 21.278
rtibia 45.4865
rfoot -6.29971 -8.2793
rtoes 19.0102
lfemur 1.57565 9.22759 -23.8335
ltibia 23.3581
lfoot -22.6202 11.3931
ltoes -16.9239
896
root 10.9596 16.6965 -10.6114 4.84671 -71.6797 3.80686
lowerback 7.33319 0.646074 -7.24764
upperback -0.659876 0.080797 -1.98992
thorax -4.828 0.186664 1.9848
lowerneck -16.4218 9.90507 -4.46297
upperneck 14.7274 13.5078 5.71882
head 6.43694 6.77586 3.83952
rclavicle -3.04141e-014 3.81667e-014
rhumerus 140.048 133.489 69.2959
rradius 90.2274
rwrist 8.16864
rhand -34.1943 29.1622
rfingers 7.12502
rthumb -7.36712 -0.689508
lclavicle -3.04141e-014 3.81667e-014
lhumerus -44.0527 -33.1413 111.219
lradius 96.6458
lwrist 29.9134
lhand -37.0082 10.1694
lfingers 7.12502
lthumb -10.0826 39.9078
rfemur -47.3854 -2.46212 21.4158
rtibia 46.0674
rfoot -6.76239 -7.90618
rtoes 19.0432
lfemur 2.12759 9.37571 -23.8469
ltibia 23.4992
lfoot -22.5347 11.6231
ltoes -17.5651
897
root 10.8949 16.6777 -10.6039 4.30772 -72.3383 4.00975
lowerback 7.11425 0.598033 -7.46732
upperback -0.752041 0.00342192 -2.12518
thorax -4.79567 0.151966 1.97501
lowerneck -16.335 10.0627 -4.46716
upperneck 14.9823 13.663 6.04035
head 6.46992 6.87504 3.95755
rclavicle -3.08116e-014 1.98785e-014
rhumerus 140.316 133.306 69.4407
rradius 90.5061
rwrist 8.34107
rhand -34.451 29.2571
rfingers 7.12502
rthumb -7.61493 -0.585816
lclavicle -3.08116e-014 1.98785e-014
lhumerus -43.8434 -33.2677 111.129
lradius 97.0829
lwrist 29.5738
lhand -37.3282 9.99415
lfingers 7.12502
lthumb -10.3913 39.7174
rfemur -47.156 -2.23847 21.5584
rtibia 46.6532
rfoot -7.25366 -7.52511
rtoes 19.0846
lfemur 2.70563 9.54077 -23.8474
ltibia 23.6706
lfoot -22.442 11.8043
ltoes -18.2449
898
root 10.8258 16.6585 -10.5956 3.73266 -73.0238 4.22317
lowerback 6.88629 0.552236 -7.68314
upperback -0.848869 -0.0690479 -2.25596
thorax -4.7634 0.119678 1.96673
lowerneck -16.2348 10.2275 -4.46987
upperneck 15.2435 13.8251 6.36861
head 6.5012 6.97827 4.07734
rclavicle -1.37161e-014 3.57812e-014
rhumerus 140.616 133.166 69.6366
rradius 90.8385
rwrist 8.73204
rhand -34.5343 29.242
rfingers 7.12502
rthumb -7.69527 -0.59795
lclavicle -1.37161e-014 3.57812e-014
lhumerus -43.649 -33.4016 111.045
lradius 97.5822
lwrist 29.1826
lhand -37.5759 9.85466
lfingers 7.12502
lthumb -10.6302 39.5658
rfemur -46.8793 -2.00632 21.7122
rtibia 47.2383
rfoot -7.77405 -7.13204
rtoes 19.1307
lfemur 3.31327 9.69611 -23.8367
ltibia 23.8753
lfoot -22.3391 11.9635
ltoes -18.9558
899
root 10.7523 16.6387 -10.5868 3.13749 -73.7342 4.43241
lowerback 6.64531 0.506275 -7.88932
upperback -0.949097 -0.138644 -2.3803
thorax -4.7274 0.0885539 1.95905
lowerneck -16.1214 10.3996 -4.47873
upperneck 15.5088 13.9954 6.70786
head 6.52911 7.08617 4.20119
rclavicle -2.82274e-014 -2.38542e-015
rhumerus 140.926 133.035 69.8588
rradius 91.2367
rwrist 9.2233
rhand -34.602 29.1974
rfingers 7.12502
rthumb -7.76065 -0.6402
lclavicle -2.82274e-014 -2.38542e-015
lhumerus -43.4631 -33.5156 110.972
lradius 98.1452
lwrist 28.7023
lhand -37.772 9.76806
lfingers 7.12502
lthumb -10.8193 39.4694
rfemur -46.5547 -1.76656 21.8826
rtibia 47.8201
rfoot -8.32711 -6.72707
rtoes 19.1937
lfemur 3.94812 9.84731 -23.8082
ltibia 24.1143
lfoot -22.2201 12.0923
ltoes -19.69
900
root 10.6744 16.6183 -10.5773 2.55888 -74.4698 4.5937
lowerback 6.39353 0.461961 -8.06994
upperback -1.05053 -0.201457 -2.49536
thorax -4.68691 0.0601161 1.94573
lowerneck -15.9963 10.5781 -4.48932
upperneck 15.7829 14.1715 7.05678
head 6.55582 7.19762 4.32818
rclavicle 2.8625e-014 -3.65764e-014
rhumerus 141.222 132.884 70.085
rradius 91.7057
rwrist 9.66593
rhand -34.8313 29.2703
rfingers 7.12502
rthumb -7.98195 -0.559025
lclavicle 2.8625e-014 -3.65764e-014
lhumerus -43.2817 -33.6331 110.89
lradius 98.7808
lwrist 28.1616
lhand -37.9627 9.68573
lfingers 7.12502
lthumb -11.0033 39.3774
rfemur -46.171 -1.51821 22.0802
rtibia 48.3954
rfoot -8.9158 -6.30864
rtoes 19.287
lfemur 4.61645 9.96293 -23.7605
ltibia 24.389
lfoot -22.0753 12.2388
ltoes -20.5092
